#tb 0: 1/192000
#media_type 0: audio
#codec_id 0: pcm_s16le
#sample_rate 0: 192000
#channel_layout_name 0: stereo
0,          0,          0,     2048,     8192, 0x00000000
0,       2048,       2048,     2048,     8192, 0x5a180402
0,       4096,       4096,     2048,     8192, 0x53413568
0,       6144,       6144,     2048,     8192, 0x2a34e9e1
0,       8192,       8192,     2048,     8192, 0x51dad4d7
0,      10240,      10240,     2048,     8192, 0x9861024c
